<svg width="91" height="91" viewBox="0 0 91 91" fill="none" xmlns="http://www.w3.org/2000/svg">
<ellipse opacity="0.1" cx="45.6331" cy="45.9471" rx="44.7991" ry="45.0369" fill="#27AE60"/>
<path d="M45.6338 59.0841C45.1049 59.0841 44.6619 58.9039 44.3047 58.5436C43.9463 58.1846 43.7672 57.7392 43.7672 57.2075V47.8248H34.434C33.9051 47.8248 33.4615 47.6447 33.1031 47.2844C32.746 46.9253 32.5674 46.48 32.5674 45.9483C32.5674 45.4166 32.746 44.9706 33.1031 44.6103C33.4615 44.2513 33.9051 44.0717 34.434 44.0717H43.7672V34.689C43.7672 34.1574 43.9463 33.7114 44.3047 33.3511C44.6619 32.992 45.1049 32.8125 45.6338 32.8125C46.1627 32.8125 46.6063 32.992 46.9647 33.3511C47.3218 33.7114 47.5004 34.1574 47.5004 34.689V44.0717H56.8335C57.3624 44.0717 57.8054 44.2513 58.1626 44.6103C58.521 44.9706 58.7002 45.4166 58.7002 45.9483C58.7002 46.48 58.521 46.9253 58.1626 47.2844C57.8054 47.6447 57.3624 47.8248 56.8335 47.8248H47.5004V57.2075C47.5004 57.7392 47.3218 58.1846 46.9647 58.5436C46.6063 58.9039 46.1627 59.0841 45.6338 59.0841Z" fill="#27AE60"/>
</svg>
