<svg width="26" height="27" viewBox="0 0 26 27" fill="none" xmlns="http://www.w3.org/2000/svg">
<path d="M6.57364 10.4899C6.69242 9.92563 6.78152 9.33171 7.10818 8.82687C7.82089 7.63902 8.94935 7.19357 10.256 7.16387C12.0378 7.13418 13.7898 7.13418 15.5716 7.16387C16.7595 7.19357 17.8285 7.57962 18.5709 8.61899C19.0461 9.30201 19.2243 10.0444 19.2243 10.8462C19.254 12.5389 19.254 14.2316 19.2243 15.954C19.1946 17.32 18.7194 18.4782 17.4425 19.1909C16.8486 19.5175 16.1952 19.666 15.5419 19.666C13.7898 19.6957 12.0378 19.6957 10.3154 19.666C9.00874 19.6363 7.88028 19.1909 7.13788 18.003C6.81122 17.4982 6.72212 16.9043 6.60334 16.34C6.57364 14.3504 6.57364 12.4201 6.57364 10.4899ZM12.899 8.35173C12.0378 8.35173 11.1766 8.32203 10.2857 8.35173C8.91965 8.38142 8.08816 9.00505 7.85058 10.1929C7.79119 10.4305 7.76149 10.6977 7.76149 10.9353C7.76149 12.5686 7.73179 14.2316 7.76149 15.8649C7.79119 17.4982 8.62269 18.3594 10.1966 18.4188C11.9784 18.4782 13.7601 18.4782 15.5419 18.4188C16.8486 18.3891 17.6207 17.7358 17.8879 16.6073C17.9473 16.3994 17.977 16.1915 17.977 15.9837C17.977 14.1128 18.0958 12.2419 17.9176 10.3711C17.8285 9.27231 17.0861 8.52991 15.9874 8.38142C14.9777 8.26264 13.9383 8.38142 12.899 8.35173Z" fill="black"/>
<path d="M16.1655 13.3989C16.1655 15.1509 14.7104 16.6061 12.899 16.6358C11.0875 16.6655 9.60266 15.1806 9.60266 13.3692C9.60266 11.5874 11.1172 10.1026 12.899 10.1323C14.7401 10.162 16.1655 11.6171 16.1655 13.3989ZM14.948 13.3989C14.948 12.2704 14.0274 11.3498 12.899 11.3498C11.7705 11.3498 10.8202 12.2704 10.8202 13.3989C10.8202 14.5273 11.7408 15.4479 12.8693 15.4479C14.0274 15.4479 14.948 14.5273 14.948 13.3989Z" fill="black"/>
<path d="M16.2546 9.27246C16.7 9.27246 17.0564 9.62882 17.0564 10.0446C17.0564 10.4603 16.7 10.8167 16.2843 10.8167C15.8388 10.8167 15.4825 10.49 15.4528 10.0446C15.4528 9.62882 15.8091 9.27246 16.2546 9.27246Z" fill="black"/>
</svg>
