<svg width="26" height="27" viewBox="0 0 26 27" fill="none" xmlns="http://www.w3.org/2000/svg">
<path d="M6.61099 17.1214C8.01232 17.2433 9.23087 16.9082 10.358 16.1161C10.1143 16.0552 9.90107 16.0248 9.71829 15.9638C8.9567 15.7201 8.43881 15.2327 8.10371 14.5016C8.01232 14.2883 8.01232 14.2579 8.25603 14.2579C8.49974 14.2579 8.74345 14.2883 9.04809 14.1969C8.59113 14.0751 8.22557 13.8618 7.92093 13.5877C7.43351 13.1307 7.12887 12.5519 7.09841 11.8817C7.06795 11.6075 7.09841 11.5771 7.34212 11.6989C7.58583 11.8208 7.82954 11.8817 8.13418 11.8817C7.9514 11.6684 7.73815 11.5161 7.6163 11.3029C7.03749 10.4804 6.94609 9.59691 7.34212 8.683C7.43351 8.43929 7.49444 8.43929 7.67722 8.62207C8.56067 9.59691 9.59643 10.328 10.8454 10.7545C11.3938 10.9373 11.9421 11.0592 12.5209 11.1201C12.8256 11.1506 12.8561 11.1201 12.7951 10.8155C12.6733 9.77969 13.2521 8.71346 14.1965 8.22604C15.1408 7.73863 16.3594 7.86048 17.121 8.59161C17.2733 8.74393 17.4256 8.74393 17.6084 8.71346C18.0044 8.59161 18.4004 8.46975 18.766 8.25651C18.8269 8.22604 18.8879 8.16512 18.9793 8.19558C18.7965 8.74393 18.4614 9.17042 18.0044 9.53598C18.4309 9.47506 18.8574 9.3532 19.2839 9.20088C19.2839 9.3532 19.1925 9.41413 19.162 9.50552C18.8879 9.84062 18.6137 10.1453 18.2786 10.389C18.1263 10.5108 18.0653 10.6327 18.0653 10.8459C18.0958 12.5824 17.5475 14.136 16.5117 15.5069C15.2931 17.1519 13.6176 18.0658 11.607 18.3095C9.93153 18.5228 8.34742 18.1877 6.88516 17.3652C6.82424 17.3347 6.79377 17.3042 6.73285 17.2738C6.67192 17.2128 6.64146 17.1824 6.61099 17.1214Z" fill="black"/>
</svg>
